<svg xmlns="http://www.w3.org/2000/svg" viewBox="0 0 44.62 61.25"><defs><style>.cls-1{fill:#fff;stroke:#b3b3b3;stroke-miterlimit:10;stroke-width:0.35px;}.cls-2{fill:#efefef;}.cls-3{fill:#c9c8c8;}.cls-4{fill:#00b451;}</style></defs><title>Ресурс 1</title><g id="Слой_2" data-name="Слой 2"><g id="Выставить_счет_на_оплату" data-name="Выставить счет на оплату"><polygon class="cls-1" points="44.45 10.89 44.45 61.08 0.17 61.08 0.17 0.17 33.94 0.17 44.45 10.89"/><polygon class="cls-2" points="44.45 10.89 33.94 10.89 33.94 0.17 44.45 10.89"/><rect class="cls-3" x="7.18" y="14.12" width="30.87" height="1.98"/><rect class="cls-3" x="7.18" y="19.11" width="30.97" height="0.56"/><rect class="cls-3" x="7.18" y="21.2" width="30.97" height="0.56"/><rect class="cls-3" x="7.18" y="23.3" width="15.48" height="0.57"/><rect class="cls-3" x="7.18" y="25.41" width="30.97" height="0.56"/><rect class="cls-3" x="7.18" y="27.52" width="30.97" height="0.56"/><rect class="cls-3" x="7.18" y="29.62" width="15.48" height="0.56"/><rect class="cls-3" x="7.18" y="31.73" width="23.95" height="0.56"/><rect class="cls-3" x="7.18" y="33.83" width="23.95" height="0.56"/><rect class="cls-3" x="7.18" y="35.94" width="30.97" height="0.57"/><rect class="cls-3" x="7.18" y="38.04" width="30.97" height="0.56"/><rect class="cls-3" x="7.18" y="40.15" width="30.97" height="0.56"/><rect class="cls-3" x="7.18" y="42.25" width="15.13" height="0.56"/><rect class="cls-3" x="7.18" y="44.36" width="30.97" height="0.56"/><rect class="cls-3" x="7.18" y="46.46" width="30.97" height="0.56"/><rect class="cls-3" x="7.18" y="48.73" width="30.97" height="0.57"/><polygon class="cls-4" points="37.52 52.54 34.18 55.88 32.92 54.62 32.23 55.3 33.49 56.57 34.18 57.26 34.87 56.57 38.21 53.22 37.52 52.54"/></g></g></svg>