<svg xmlns="http://www.w3.org/2000/svg" viewBox="0 0 19.6 19.6"><defs><style>.cls-1{fill:#00a99d;}.cls-2{fill:#e6e6e6;}</style></defs><title>Ресурс 2</title><g id="Слой_2" data-name="Слой 2"><g id="Меню"><circle class="cls-1" cx="9.8" cy="9.8" r="9.8"/><path class="cls-2" d="M10.65,14.81l-.34.07V16a.52.52,0,1,1-1,0v-.47c0-.32-.06-.59-.14-.59H9.07a4.94,4.94,0,0,1-1.94-.51l-.32-.19L7,13.68c.11-.3.36-.45.56-.33l.21.1a4.27,4.27,0,0,0,1.74.38c1.17,0,1.95-.67,1.95-1.59s-.63-1.45-1.84-1.93C8,9.65,6.95,8.89,6.95,7.48A2.6,2.6,0,0,1,9,4.94l.36-.08v-1a.52.52,0,1,1,1,0v.4c0,.32.12.59.28.6h.13a4.34,4.34,0,0,1,1.3.34,3.85,3.85,0,0,1,.4.2l-.2.52c-.11.3-.35.47-.53.37l-.24-.1a3.85,3.85,0,0,0-1.49-.29c-1.25,0-1.72.75-1.72,1.41,0,.83.6,1.25,2,1.85,1.67.68,2.52,1.51,2.52,3A2.78,2.78,0,0,1,10.65,14.81Z"/></g></g></svg>