<svg xmlns="http://www.w3.org/2000/svg" viewBox="0 0 18.14 24.06"><defs><style>.cls-1{fill:#727270;}.cls-1,.cls-2,.cls-3{fill-rule:evenodd;}.cls-2{fill:#fefefe;}.cls-3{fill:#67cdfd;}</style></defs><title>Ресурс 6</title><g id="Слой_2" data-name="Слой 2"><g id="Меню"><path class="cls-1" d="M16.83.83H12.5V.54A.59.59,0,0,0,11.87,0H6.27a.6.6,0,0,0-.63.54V.83H1.36A1.31,1.31,0,0,0,0,2.1V22.79a1.31,1.31,0,0,0,1.36,1.27H16.83a1.3,1.3,0,0,0,1.31-1.27V2.1A1.3,1.3,0,0,0,16.83.83Z"/><path class="cls-2" d="M16.64,22.64H1.51V2.25H5.64v.14A.61.61,0,0,0,6.27,3h5.6a.61.61,0,0,0,.63-.59V2.25h4.14Z"/><path class="cls-1" d="M6.81,10.88A1.32,1.32,0,1,0,5.5,12.2a1.31,1.31,0,0,0,1.31-1.32Z"/><path class="cls-3" d="M13,10.15H8.51a.72.72,0,0,0-.73.73.73.73,0,0,0,.73.78H13a.76.76,0,0,0,.77-.78.75.75,0,0,0-.77-.73Z"/><path class="cls-1" d="M6.81,14.88A1.32,1.32,0,1,0,5.5,16.2a1.3,1.3,0,0,0,1.31-1.32Z"/><path class="cls-3" d="M13,14.15H8.51a.72.72,0,0,0-.73.73.73.73,0,0,0,.73.78H13a.76.76,0,0,0,.77-.78.75.75,0,0,0-.77-.73Z"/><path class="cls-1" d="M6.81,7.17A1.32,1.32,0,1,0,5.5,8.49,1.3,1.3,0,0,0,6.81,7.17Z"/><path class="cls-1" d="M6.81,18.79A1.32,1.32,0,1,0,5.5,20.1a1.31,1.31,0,0,0,1.31-1.31Z"/><path class="cls-3" d="M13,18H8.51a.73.73,0,0,0-.73.78.72.72,0,0,0,.73.73H13a.75.75,0,0,0,.77-.73A.76.76,0,0,0,13,18Z"/><path class="cls-3" d="M13,6.39H8.51a.76.76,0,0,0,0,1.52H13a.76.76,0,1,0,0-1.52Z"/></g></g></svg>