<svg xmlns="http://www.w3.org/2000/svg" viewBox="0 0 18.08 18.14"><defs><style>.cls-1{fill:#616e7d;}</style></defs><title>Ресурс 7</title><g id="Слой_2" data-name="Слой 2"><g id="Меню"><path class="cls-1" d="M17.63,12a9.06,9.06,0,0,0,.45-2.14l-1.47-.72q0-.36,0-.72l0-.25,1.39-.88a9.66,9.66,0,0,0-.68-2.07l-1.64.12a6.38,6.38,0,0,0-.53-.82l.76-1.45A9,9,0,0,0,14.23,1.6l-1.35.93A5.92,5.92,0,0,0,12,2.09L12,.45A8.49,8.49,0,0,0,9.81,0L9.1,1.48a5.77,5.77,0,0,0-.72,0l-.25,0L7.26.14A9.48,9.48,0,0,0,5.19.82l.12,1.64A6.34,6.34,0,0,0,4.5,3L3.05,2.23A9,9,0,0,0,1.6,3.86l.92,1.36a7.09,7.09,0,0,0-.44.87L.44,6.15A8.94,8.94,0,0,0,0,8.29L1.47,9c0,.23,0,.48,0,.72l0,.25-1.39.87a9.56,9.56,0,0,0,.68,2.08l1.63-.12a7.53,7.53,0,0,0,.53.81l-.76,1.46a9,9,0,0,0,1.63,1.45l1.35-.92a7.09,7.09,0,0,0,.87.44l.06,1.64a9.5,9.5,0,0,0,2.13.45L9,16.66l.72,0,.24,0L10.82,18a9.11,9.11,0,0,0,2.07-.67l-.12-1.64a8.77,8.77,0,0,0,.81-.54l1.45.77a9.78,9.78,0,0,0,1.45-1.63l-.92-1.36a8.86,8.86,0,0,0,.44-.87ZM9,14.42a5.35,5.35,0,1,1,5.33-5.35A5.35,5.35,0,0,1,9,14.42Z"/><path class="cls-1" d="M3.39,9.07A5.65,5.65,0,1,0,9,3.41,5.66,5.66,0,0,0,3.39,9.07Zm9.89-.37A4.27,4.27,0,1,1,8.66,4.81,4.27,4.27,0,0,1,13.28,8.7Z"/></g></g></svg>