<svg xmlns="http://www.w3.org/2000/svg" viewBox="0 0 12.33 12.33"><defs><style>.cls-1{fill:#00a99d;}.cls-1,.cls-2{fill-rule:evenodd;}.cls-2{fill:#fff;}</style></defs><title>Ресурс 8</title><g id="Слой_2" data-name="Слой 2"><g id="Блок_1" data-name="Блок 1"><path class="cls-1" d="M9.42,0h0L1.22,8.2a1.17,1.17,0,0,0-.12.2L0,11.63a.34.34,0,0,0,0,.17H0a.55.55,0,0,0,.15.38.5.5,0,0,0,.37.15H.7l3.22-1.11c.09,0,.18-.06.21-.12l8.2-8.19Z"/><path class="cls-2" d="M3.63,10.41h0v0c-.09,0-.38.2-1,.43L2.3,11l-1-1c0-.09.06-.18.08-.26a3.78,3.78,0,0,1,.47-1.05h0v0h0L2,8.6l1.74,1.72Z"/></g></g></svg>