<svg xmlns="http://www.w3.org/2000/svg" viewBox="0 0 133 28"><defs><style>.cls-1,.cls-3{fill:#00a99d;}.cls-2{fill:#fff;}.cls-2,.cls-3{fill-rule:evenodd;}</style></defs><title>Ресурс 1</title><g id="Слой_2" data-name="Слой 2"><g id="Кнопки"><rect class="cls-1" width="133" height="28"/><path class="cls-2" d="M121.69,7.37h0l-8.19,8.19a1.3,1.3,0,0,0-.12.21L112.3,19a.38.38,0,0,0,0,.18h0a.56.56,0,0,0,.15.38.55.55,0,0,0,.38.14H113l3.23-1.1c.09,0,.17-.06.2-.12l8.2-8.2Z"/><path class="cls-3" d="M115.91,17.77h0v0c-.09,0-.38.2-1,.44l-.26.08-1-.95.09-.27a3.78,3.78,0,0,1,.46-1h0v0h0l.06-.06L116,17.69Z"/></g></g></svg>