<svg xmlns="http://www.w3.org/2000/svg" viewBox="0 0 26.5 18.18"><defs><style>.cls-1{fill:#00a99d;}</style></defs><title>Ресурс 8</title><g id="Слой_2" data-name="Слой 2"><g id="Футтер"><polygon class="cls-1" points="0 3.83 0 16.14 7.88 9.98 0 3.83"/><path class="cls-1" d="M24.41,0H2.09A2.07,2.07,0,0,0,0,1.63L10.44,9.77l1.74,1.35a1.83,1.83,0,0,0,2.14,0L16.15,9.7,26.47,1.63A2.07,2.07,0,0,0,24.41,0Z"/><polygon class="cls-1" points="26.5 16.14 26.5 3.83 18.62 9.98 26.5 16.14"/><path class="cls-1" d="M15.73,12.24l-1.41,1.11a1.83,1.83,0,0,1-2.14,0l-1.82-1.43L9.3,11.09.79,17.74a2.17,2.17,0,0,0,1.3.44H24.41a2.17,2.17,0,0,0,1.3-.44L17.2,11.09Z"/></g></g></svg>