<svg xmlns="http://www.w3.org/2000/svg" viewBox="0 0 21.4 21.4"><defs><style>.cls-1{fill:#00a99d;}</style></defs><title>Ресурс 9</title><g id="Слой_2" data-name="Слой 2"><g id="Футтер"><path class="cls-1" d="M8,7.57a3.24,3.24,0,0,0,.67-1C9.23,5.27,9,5,9,5a11.16,11.16,0,0,0-2.13-2.8A11,11,0,0,0,4.05.08,2.3,2.3,0,0,0,1.86.63h0q-.2.19-.36.39Z"/><path class="cls-1" d="M21.33,17.35a11.16,11.16,0,0,0-2.13-2.8,10.78,10.78,0,0,0-2.81-2.13s-.26-.25-1.59.29a3.31,3.31,0,0,0-1,.67l6.53,6.53.39-.36h0A2.32,2.32,0,0,0,21.33,17.35Z"/><path class="cls-1" d="M13.14,14.32a1.07,1.07,0,0,1-.92.39A6.74,6.74,0,0,1,8.5,12.9c-1-1-2.54-3.8-1.42-4.63l.2-.13L.92,1.79A4.89,4.89,0,0,0,0,4.4S-.17,9.68,5.78,15.62C11.41,21.26,16.44,21.4,17,21.4H17a5,5,0,0,0,2.6-.92l-6.36-6.35Z"/></g></g></svg>