<svg xmlns="http://www.w3.org/2000/svg" viewBox="0 0 19.1 17.9"><defs><style>.cls-1{fill:#00a99d;}</style></defs><title>Ресурс 3</title><g id="Слой_2" data-name="Слой 2"><g id="Выбор_профиля" data-name="Выбор профиля"><path class="cls-1" d="M4.77,14.32V17.9h9.55v-6H4.77ZM6,13.13h7.16v1.19H6Zm0,2.39h7.16v1.19H6Z"/><polygon class="cls-1" points="14.32 3.58 14.32 0 4.78 0 4.78 3.58 4.78 5.97 14.32 5.97 14.32 3.58"/><path class="cls-1" d="M16.71,3.58H15.52V7.16H3.58V3.58H2.39A2.56,2.56,0,0,0,0,6v6a2.56,2.56,0,0,0,2.39,2.38H3.58V10.74H15.52v3.58h1.19a2.57,2.57,0,0,0,2.39-2.38V6A2.57,2.57,0,0,0,16.71,3.58Z"/></g></g></svg>