<svg xmlns="http://www.w3.org/2000/svg" viewBox="0 0 112 28"><defs><style>.cls-1{fill:#00a99d;}.cls-2{fill:#fff;}</style></defs><title>Ресурс 6</title><g id="Слой_2" data-name="Слой 2"><g id="Кнопки"><rect class="cls-1" width="112" height="28"/><path class="cls-2" d="M102.44,17.62l0,0-1.12,1.12,0,0,.3.3c.19.19.6.09.91-.21s.4-.72.21-.91l-.28-.28Z"/><polygon class="cls-2" points="102.12 17.31 101 18.43 101.28 18.7 102.4 17.58 102.36 17.55 102.36 17.55 102.12 17.31"/><path class="cls-2" d="M96.17,8.05a4.36,4.36,0,1,0,2.41,8L101,18.43l1.12-1.12-2.4-2.37a4.31,4.31,0,0,0,.81-2.53A4.36,4.36,0,0,0,96.17,8.05Zm.06,7.43a3.07,3.07,0,1,1,3.07-3.07A3.08,3.08,0,0,1,96.23,15.48Z"/></g></g></svg>